<?xml version="1.0" standalone="no"?>
<!DOCTYPE svg PUBLIC "-//W3C//DTD SVG 20010904//EN"
 "http://www.w3.org/TR/2001/REC-SVG-20010904/DTD/svg10.dtd">
<svg version="1.0" xmlns="http://www.w3.org/2000/svg"
 width="1024.000000pt" height="1024.000000pt" viewBox="0 0 1024.000000 1024.000000"
 preserveAspectRatio="xMidYMid meet">
<metadata>
Created by potrace 1.16, written by Peter Selinger 2001-2019
</metadata>
<g transform="translate(0.000000,1024.000000) scale(0.100000,-0.100000)"
fill="#000000" stroke="none">
<path d="M4988 9030 c-768 -57 -1505 -348 -2115 -837 -196 -157 -433 -399
-580 -594 -418 -552 -647 -1123 -734 -1834 -21 -165 -15 -542 10 -730 58 -433
160 -771 346 -1150 141 -288 282 -502 495 -749 371 -432 927 -794 1380 -900
195 -45 706 -124 990 -152 221 -22 603 -22 820 0 405 40 964 137 1144 197 176
58 443 209 651 367 275 209 562 519 772 832 401 599 623 1358 600 2050 -38
1120 -584 2125 -1529 2813 -267 194 -621 380 -949 497 -414 147 -904 219
-1301 190z m557 -291 c126 -14 303 -46 415 -75 177 -46 350 -107 350 -124 0
-4 14 -13 30 -20 17 -7 30 -15 30 -19 0 -4 13 -15 29 -24 17 -10 72 -52 123
-93 51 -42 103 -80 116 -85 25 -10 95 -59 100 -71 2 -5 10 -8 18 -8 7 0 16
-11 20 -25 4 -17 28 -41 68 -67 33 -23 104 -74 157 -113 52 -40 115 -85 140
-101 24 -15 65 -45 90 -66 26 -21 51 -38 57 -38 6 0 12 -4 14 -8 2 -5 30 -27
63 -51 67 -47 244 -176 260 -188 24 -20 87 -53 101 -53 8 0 14 -6 14 -14 0 -8
10 -18 23 -22 32 -9 52 -30 116 -114 211 -279 461 -806 461 -972 l0 -58 -50 0
c-43 0 -58 6 -115 48 -37 26 -77 54 -88 62 -21 14 -201 141 -532 375 -77 55
-144 103 -150 108 -5 4 -56 40 -112 80 -55 39 -163 117 -240 171 -225 162
-329 235 -643 456 -113 79 -280 196 -372 261 l-168 118 0 -43 0 -44 -145 -108
-145 -109 0 -426 0 -426 233 -6 c127 -4 453 -7 722 -7 468 0 491 -1 522 -20
69 -42 66 -4 64 -813 -1 -401 -6 -740 -11 -753 -5 -12 -21 -31 -36 -41 -25
-16 -78 -17 -805 -17 -561 1 -777 -2 -772 -10 3 -6 15 -23 25 -38 l19 -28 251
0 250 0 -4 -67 c-3 -38 -8 -76 -12 -85 -6 -13 4 -22 47 -43 30 -15 76 -43 103
-64 49 -36 49 -37 52 -99 l3 -62 -158 6 -158 7 -88 84 -88 83 -153 0 -154 0
-93 144 c-52 80 -141 222 -199 316 -156 255 -202 300 -391 381 -153 65 -226
83 -465 113 -28 4 -35 -2 -90 -74 l-59 -78 -390 -4 c-434 -4 -426 -2 -506 -75
-45 -41 -89 -119 -89 -157 0 -25 124 -532 195 -801 40 -151 78 -305 141 -570
25 -105 58 -217 74 -251 50 -104 154 -181 275 -203 33 -6 173 -11 317 -11
l258 0 0 -367 0 -366 -167 6 c-267 11 -367 -8 -442 -84 -48 -47 -72 -103 -78
-180 l-6 -69 -55 0 c-47 0 -72 9 -191 69 -75 38 -151 77 -168 87 l-33 19 0
238 c0 156 -3 236 -10 232 -5 -3 -10 -14 -10 -24 0 -25 -42 -31 -224 -31
l-149 0 7 85 c3 50 2 85 -3 85 -5 0 -16 3 -25 6 -13 5 -16 -2 -16 -45 l0 -51
-37 0 c-21 0 -62 3 -90 6 l-53 7 0 55 0 55 71 -5 c41 -3 65 -2 58 3 -8 5 -24
9 -37 9 -25 0 -52 21 -52 40 0 6 -11 26 -25 44 -45 60 -55 106 -55 267 l0 149
-207 2 -208 3 -52 105 c-63 127 -144 328 -173 430 -12 41 -26 89 -31 106 -11
39 -44 188 -69 317 -34 173 -53 548 -34 646 6 30 8 31 60 31 l53 0 3 -107 c3
-103 4 -108 26 -111 12 -2 22 1 22 7 0 6 13 11 29 11 17 0 33 5 36 10 3 6 0
10 -8 10 -7 0 -19 11 -25 25 -12 27 -17 191 -6 219 5 13 24 16 105 16 99 0 99
0 99 -25 0 -18 5 -25 20 -25 11 0 20 7 20 15 0 8 7 15 15 15 8 0 15 5 15 10 0
6 11 10 25 10 14 0 25 4 25 8 0 4 20 30 45 57 36 41 45 57 45 88 l0 37 55 0
c30 0 55 -4 55 -10 0 -5 6 -10 13 -10 8 0 67 -38 132 -85 65 -47 122 -85 126
-85 5 0 9 18 9 40 0 22 5 40 10 40 6 0 10 11 10 25 0 14 11 37 25 51 15 15 25
36 25 54 0 19 5 30 14 30 7 0 16 9 19 20 4 15 14 20 39 20 25 0 29 3 18 10 -8
5 -30 10 -47 10 -18 0 -33 4 -33 10 0 17 -50 60 -70 60 -11 0 -20 5 -20 10 0
6 -8 10 -18 10 -24 0 -59 30 -63 55 -3 11 -14 21 -26 23 -11 2 -23 12 -26 23
-4 16 -14 19 -56 19 -44 0 -51 3 -51 20 0 17 -7 20 -40 20 -39 0 -40 1 -40 34
0 33 -2 35 -37 38 -36 3 -38 5 -41 41 -3 35 -5 37 -36 37 -18 0 -54 3 -80 6
-45 7 -46 7 -46 44 0 37 -2 39 -40 45 -36 6 -40 10 -40 35 0 20 -9 35 -30 50
l-30 21 0 -20 c0 -19 -6 -21 -65 -21 l-65 0 0 55 0 55 55 0 55 0 0 45 c0 25
-4 45 -10 45 -14 0 -13 129 1 169 7 20 18 31 30 31 14 0 19 7 19 29 0 15 5 42
11 60 10 30 13 31 65 31 l54 0 0 -53 c0 -62 -18 -107 -42 -107 -14 0 -18 -8
-18 -34 0 -19 -3 -41 -6 -50 -4 -12 0 -16 15 -16 28 0 61 -30 61 -56 0 -16 7
-23 30 -26 l30 -5 0 88 c0 65 4 92 15 103 8 8 15 23 15 33 0 34 12 63 26 63 8
0 14 8 14 19 0 10 3 33 7 51 l6 33 -44 -6 c-24 -3 -45 -11 -47 -16 -2 -6 -28
-11 -58 -11 l-54 0 0 55 c0 30 5 55 10 55 6 0 10 6 10 14 0 8 6 21 12 28 7 7
22 30 32 51 11 20 25 37 31 37 7 0 15 14 19 30 3 17 14 43 24 58 10 15 32 48
49 74 56 83 244 300 366 420 147 146 258 239 414 348 556 386 1112 585 1738
620 163 9 480 3 610 -11z m613 -1001 c8 -8 12 -64 12 -188 0 -124 -4 -180 -12
-188 -7 -7 -37 -12 -68 -12 -31 0 -61 5 -68 12 -13 13 -18 341 -6 372 8 20
123 23 142 4z m401 -311 c13 -26 21 -63 21 -94 l0 -50 -45 -13 c-25 -7 -46
-18 -46 -24 -1 -6 -1 -38 0 -71 2 -88 0 -89 -113 -80 l-96 7 0 50 c0 27 4 58
10 68 7 14 6 23 -5 34 -10 10 -15 35 -15 75 l0 61 55 0 c54 0 55 1 75 40 20
40 21 40 79 40 l59 0 21 -43z m109 -261 c2 -41 -1 -62 -10 -67 -7 -5 -43 -9
-80 -9 l-68 0 0 54 c0 46 3 56 20 61 11 3 20 11 20 16 0 6 24 9 58 7 l57 -3 3
-59z m-516 -113 c27 -24 26 -138 -1 -153 -31 -16 -112 -12 -133 7 -24 21 -26
124 -2 147 21 22 111 21 136 -1z m1416 -386 c4 -86 -5 -97 -73 -97 -83 0 -85
2 -85 84 0 40 3 76 7 80 4 4 39 5 78 4 l70 -3 3 -68z m-31 -281 c25 -22 28
-31 31 -105 4 -78 3 -81 -26 -111 -29 -28 -35 -30 -110 -30 -77 0 -81 1 -106
31 -23 27 -26 39 -26 106 0 69 2 77 29 104 27 27 35 29 105 29 65 0 79 -3 103
-24z m573 -36 l0 -60 -47 0 c-87 0 -93 5 -93 66 l0 54 70 0 70 0 0 -60z m-211
-125 c26 -66 47 -87 103 -106 l53 -18 3 -58 3 -59 -63 -25 c-62 -24 -63 -25
-88 -86 l-25 -63 -57 0 c-40 0 -58 4 -58 13 0 6 -11 35 -24 64 -23 48 -29 53
-85 73 l-61 23 0 58 0 57 53 18 c69 22 73 26 98 96 l22 59 55 -3 c53 -3 55 -4
71 -43z m-5859 -60 c0 -45 0 -45 35 -45 l35 0 0 -55 0 -55 -55 0 c-54 0 -55 0
-55 30 0 29 -2 30 -45 30 l-45 0 0 70 0 70 65 0 65 0 0 -45z m6384 -59 c32
-126 58 -436 37 -436 -12 0 -891 -878 -891 -890 0 -6 -7 -10 -15 -10 -9 0 -18
-12 -21 -30 l-6 -30 -449 0 -448 0 -15 28 c-28 53 -95 102 -161 116 -28 6 -33
14 -58 89 -15 45 -27 103 -27 130 l0 47 330 0 c354 0 374 2 428 53 44 40 52
70 52 182 l0 105 51 0 c48 0 59 -5 150 -70 75 -54 103 -69 115 -62 9 5 195
188 413 406 l397 396 56 0 c51 0 56 -2 62 -24z m-860 -252 c12 -5 16 -21 16
-69 0 -94 -1 -95 -79 -95 -39 0 -72 5 -79 12 -7 7 -12 39 -12 73 0 34 5 66 12
73 12 12 114 17 142 6z m4 -236 c7 -7 12 -38 12 -69 0 -74 -14 -89 -85 -89
-70 0 -85 15 -85 85 0 83 2 85 79 85 39 0 72 -5 79 -12z m919 -345 c-9 -233
-36 -425 -92 -649 -19 -79 -27 -96 -61 -127 -21 -20 -33 -37 -26 -37 14 0 18
-110 3 -110 -5 0 -12 -20 -15 -45 -4 -25 -14 -51 -22 -59 -8 -8 -14 -22 -14
-32 0 -10 -5 -33 -12 -51 -11 -29 -16 -33 -50 -33 l-38 0 0 -47 c0 -67 -9 -93
-31 -93 -14 0 -19 -7 -19 -25 0 -24 -3 -25 -55 -25 l-55 0 0 55 c0 42 3 55 15
55 11 0 15 12 15 45 l0 45 48 0 48 0 -4 63 c-2 34 -6 64 -8 66 -2 2 -129 -124
-284 -279 -234 -237 -280 -288 -280 -312 0 -15 -4 -28 -9 -28 -5 0 -11 -10
-13 -21 -3 -24 -12 -30 -78 -50 -38 -12 -46 -19 -48 -41 -2 -16 -8 -28 -13
-28 -5 0 -8 -24 -8 -52 1 -33 4 -42 6 -24 6 37 25 56 57 56 21 0 25 5 28 38
l3 37 63 3 62 3 0 39 c0 28 4 40 14 40 8 0 17 11 20 25 4 16 13 25 26 25 11 0
20 7 20 15 0 8 7 15 15 15 8 0 15 7 15 15 0 9 11 27 25 40 19 20 34 25 75 25
l50 0 0 -50 c0 -41 -5 -56 -25 -75 -13 -14 -29 -25 -35 -25 -5 0 -10 -9 -10
-20 0 -13 -7 -20 -19 -20 -12 0 -21 -9 -25 -25 -4 -14 -13 -25 -21 -25 -8 0
-15 -7 -15 -15 0 -11 -11 -15 -40 -15 l-40 0 0 -40 c0 -29 -4 -40 -15 -40 -8
0 -15 -5 -15 -11 0 -14 -25 -39 -39 -39 -6 0 -11 -7 -11 -15 0 -8 -6 -15 -14
-15 -7 0 -16 -9 -19 -21 -3 -11 -15 -23 -26 -26 -12 -3 -21 -12 -21 -19 0 -10
-13 -14 -45 -14 -45 0 -45 0 -45 -35 0 -35 -35 -85 -60 -85 -5 0 -10 -7 -10
-15 0 -17 -55 -75 -70 -75 -6 0 -10 -6 -10 -14 0 -8 -9 -17 -19 -21 -11 -3
-23 -15 -26 -26 -4 -10 -13 -19 -21 -19 -8 0 -14 -6 -14 -14 0 -8 -9 -18 -20
-21 -11 -3 -20 -11 -20 -16 0 -5 -13 -9 -30 -9 -27 0 -30 -3 -30 -30 0 -16 -4
-30 -9 -30 -5 0 -13 -9 -16 -20 -3 -11 -13 -20 -21 -20 -8 0 -14 -4 -14 -10 0
-11 -36 -50 -46 -50 -7 0 -34 -27 -34 -34 0 -4 -12 -20 -27 -36 -24 -27 -32
-30 -86 -30 l-60 0 6 98 c4 53 7 118 7 145 l0 47 55 0 c52 0 55 -1 55 -25 0
-20 5 -25 24 -25 21 0 25 5 28 38 3 35 5 37 40 40 35 3 37 5 40 40 3 35 5 37
40 40 35 3 37 5 40 40 3 35 5 37 41 40 23 2 37 8 37 17 0 19 47 65 65 65 11 0
15 12 15 40 l0 40 65 0 65 0 0 30 c0 28 -3 30 -37 30 -21 0 -47 3 -58 6 -16 4
-40 -13 -100 -71 -166 -157 -235 -231 -235 -247 0 -11 -8 -18 -20 -18 -11 0
-27 -11 -36 -25 -14 -22 -23 -25 -75 -25 l-59 0 0 790 0 790 403 0 c327 0 406
3 422 14 20 13 202 198 615 619 l203 207 55 0 55 0 -6 -157z m-3544 -145 c5
-15 218 -316 278 -394 44 -58 97 -98 161 -122 38 -15 118 -18 653 -22 l610 -5
3 -1042 c2 -985 1 -1043 -15 -1051 -10 -5 -90 -31 -178 -57 -160 -48 -318 -71
-334 -48 -12 18 -77 51 -130 67 -30 9 -96 19 -147 22 l-93 7 -6 51 c-4 28 -5
74 -3 101 3 48 4 50 36 53 l32 3 0 727 c0 710 -1 728 -21 772 -25 55 -62 95
-114 123 -39 21 -52 22 -442 25 l-403 3 0 400 0 399 54 0 c34 0 56 -5 59 -12z
m3037 -1233 l0 -75 -55 0 -55 0 0 75 0 75 55 0 55 0 0 -75z m-2510 -662 l0
-548 103 3 104 3 6 -77 c4 -42 7 -90 7 -106 l0 -28 -105 0 -104 0 -3 -87 -3
-88 -70 -3 c-38 -2 -94 0 -123 3 l-53 7 2 68 c2 75 -11 106 -56 136 -23 15
-25 22 -25 98 0 72 -4 87 -30 134 -34 58 -92 106 -154 124 -28 9 -111 12 -263
11 l-223 -2 0 364 0 364 338 3 c282 3 344 6 380 20 63 24 115 63 142 108 24
38 27 39 78 40 l52 0 0 -547z m-471 -402 c28 -6 55 -20 75 -40 l31 -31 0 -118
0 -117 -36 -35 -36 -35 5 -79 5 -79 -138 6 c-76 4 -185 7 -242 7 l-103 0 0 63
c0 67 -13 95 -63 138 l-28 24 7 147 7 148 191 3 c105 1 211 3 236 4 25 1 65
-2 89 -6z m-584 -147 l7 -146 -31 -29 c-37 -33 -61 -85 -61 -129 0 -29 -1 -30
-48 -30 -48 0 -278 58 -429 108 l-83 27 0 130 c0 144 5 160 64 196 28 17 53
19 302 19 l272 0 7 -146z"/>
<path d="M4850 7000 c-8 -5 -86 -10 -172 -10 -86 0 -181 -5 -210 -11 -163 -34
-283 -153 -319 -316 -25 -108 21 -253 110 -355 l41 -46 0 -111 c0 -81 3 -113
13 -115 6 -2 62 -11 122 -20 61 -9 120 -19 133 -22 21 -6 22 -4 22 55 l0 61
59 0 c67 0 111 23 148 79 22 32 23 43 23 225 -1 147 -4 197 -15 216 -8 14 -14
52 -15 85 0 57 2 62 35 88 37 29 75 93 75 125 0 25 -20 82 -28 82 -4 0 -14 -5
-22 -10z"/>
<path d="M6527 6475 c10 -13 21 -25 26 -25 4 0 7 -27 7 -60 l0 -60 52 0 c45 0
57 -4 85 -32 l33 -32 0 117 0 117 -110 0 -111 0 18 -25z"/>
<path d="M2370 4270 c0 -55 58 -145 120 -186 36 -24 40 -25 68 -10 57 29 136
138 130 177 -3 17 -9 14 -48 -21 -41 -35 -50 -39 -101 -40 -52 0 -58 2 -112
51 -49 43 -57 48 -57 29z"/>
<path d="M2793 3641 c10 -46 50 -97 106 -133 56 -36 102 -34 162 8 46 31 92
103 87 134 -3 19 -10 15 -65 -34 -56 -51 -65 -56 -108 -56 -42 0 -55 6 -99 43
-95 79 -90 77 -83 38z"/>
<path d="M4807 1750 c-74 -29 -113 -64 -148 -135 -37 -75 -35 -110 10 -173 40
-54 71 -74 181 -118 134 -52 140 -59 140 -156 0 -44 -4 -88 -10 -98 -22 -41
-146 -53 -254 -25 -33 9 -60 14 -61 13 -1 -2 -7 -12 -13 -24 -10 -19 -7 -23
36 -42 106 -48 175 -51 264 -13 82 35 157 134 158 206 0 47 -53 128 -105 163
-26 17 -84 43 -128 58 -50 17 -93 38 -109 55 -25 24 -28 35 -28 92 0 81 5 94
42 113 24 12 55 15 135 13 l105 -4 14 27 14 27 -66 21 c-81 24 -115 25 -177 0z"/>
<path d="M3902 1468 l3 -293 28 -57 c34 -69 97 -127 163 -151 63 -22 101 -22
167 3 73 27 130 79 164 148 l28 57 3 293 3 292 -60 0 -60 0 -3 -326 -3 -326
-33 -29 c-30 -27 -38 -29 -115 -29 -101 0 -140 19 -156 77 -7 23 -11 158 -11
336 l0 297 -61 0 -61 0 4 -292z"/>
<path d="M5290 1360 l0 -400 230 0 230 0 0 45 0 45 -165 0 -164 0 -6 33 c-3
17 -5 79 -3 137 l3 105 148 3 147 3 0 39 0 40 -144 0 -144 0 -7 83 c-4 45 -5
105 -3 132 l3 50 163 3 162 2 0 40 0 40 -225 0 -225 0 0 -400z"/>
<path d="M6015 1648 c-3 -62 -5 -241 -3 -398 l3 -285 63 -3 62 -3 0 181 0 180
150 0 150 0 0 40 0 40 -150 0 -150 0 0 141 0 140 165 -3 165 -3 0 43 0 42
-224 0 -224 0 -7 -112z"/>
</g>
</svg>
